<svg preserveAspectRatio="none" width="100%" height="100%" overflow="visible" style="display: block;" viewBox="0 0 187 187" fill="none" xmlns="http://www.w3.org/2000/svg">
<g id="App Background Blur" filter="url(#filter0_f_0_8)">
<g id="Rectangle">
<path d="M144.5 93.5C144.5 121.667 121.667 144.5 93.5 144.5C65.3335 144.5 42.5 121.667 42.5 93.5C42.5 65.3335 65.3335 42.5 93.5 42.5C121.667 42.5 144.5 65.3335 144.5 93.5Z" fill="url(#paint0_linear_0_8)"/>
<path d="M144.5 93.5C144.5 121.667 121.667 144.5 93.5 144.5C65.3335 144.5 42.5 121.667 42.5 93.5C42.5 65.3335 65.3335 42.5 93.5 42.5C121.667 42.5 144.5 65.3335 144.5 93.5Z" fill="url(#paint1_radial_0_8)" fill-opacity="0.35"/>
<path d="M144.5 93.5C144.5 121.667 121.667 144.5 93.5 144.5C65.3335 144.5 42.5 121.667 42.5 93.5C42.5 65.3335 65.3335 42.5 93.5 42.5C121.667 42.5 144.5 65.3335 144.5 93.5Z" fill="url(#paint2_radial_0_8)" fill-opacity="0.5"/>
<path d="M144.5 93.5C144.5 121.667 121.667 144.5 93.5 144.5C65.3335 144.5 42.5 121.667 42.5 93.5C42.5 65.3335 65.3335 42.5 93.5 42.5C121.667 42.5 144.5 65.3335 144.5 93.5Z" fill="url(#paint3_radial_0_8)" fill-opacity="0.6"/>
<path d="M144.5 93.5C144.5 121.667 121.667 144.5 93.5 144.5C65.3335 144.5 42.5 121.667 42.5 93.5C42.5 65.3335 65.3335 42.5 93.5 42.5C121.667 42.5 144.5 65.3335 144.5 93.5Z" fill="url(#paint4_radial_0_8)" fill-opacity="0.5"/>
</g>
</g>
<defs>
<filter id="filter0_f_0_8" x="-9.53674e-07" y="-9.53674e-07" width="187" height="187" filterUnits="userSpaceOnUse" color-interpolation-filters="sRGB">
<feFlood flood-opacity="0" result="BackgroundImageFix"/>
<feBlend mode="normal" in="SourceGraphic" in2="BackgroundImageFix" result="shape"/>
<feGaussianBlur stdDeviation="21.25" result="effect1_foregroundBlur_0_8"/>
</filter>
<linearGradient id="paint0_linear_0_8" x1="114.278" y1="144.5" x2="47.4583" y2="43.4444" gradientUnits="userSpaceOnUse">
<stop stop-color="#5322D9"/>
<stop offset="0.16561" stop-color="#5322D9"/>
<stop offset="0.639065" stop-color="#3C3FF8"/>
<stop offset="0.838611" stop-color="#3E4AF3"/>
<stop offset="1" stop-color="#413FEA"/>
</linearGradient>
<radialGradient id="paint1_radial_0_8" cx="0" cy="0" r="1" gradientUnits="userSpaceOnUse" gradientTransform="translate(53.8333 28.0972) rotate(115.839) scale(133.268 90.695)">
<stop stop-color="#00FFFF"/>
<stop offset="1" stop-color="#00FFFF" stop-opacity="0"/>
</radialGradient>
<radialGradient id="paint2_radial_0_8" cx="0" cy="0" r="1" gradientUnits="userSpaceOnUse" gradientTransform="translate(52.6528 120.417) rotate(108.303) scale(32.33 49.0577)">
<stop stop-color="#5322D9"/>
<stop offset="1" stop-color="#5322D9" stop-opacity="0"/>
</radialGradient>
<radialGradient id="paint3_radial_0_8" cx="0" cy="0" r="1" gradientUnits="userSpaceOnUse" gradientTransform="translate(152.292 34.7083) rotate(139.502) scale(42.538 48.1218)">
<stop stop-color="#4858E5"/>
<stop offset="1" stop-color="#4858E5" stop-opacity="0"/>
</radialGradient>
<radialGradient id="paint4_radial_0_8" cx="0" cy="0" r="1" gradientUnits="userSpaceOnUse" gradientTransform="translate(40.6111 56.9028) rotate(25.6079) scale(44.2493 32.3466)">
<stop stop-color="#3483FF"/>
<stop offset="1" stop-color="#3E6DEE" stop-opacity="0"/>
</radialGradient>
</defs>
</svg>
